<?xml version="1.0" standalone="no"?>
<!DOCTYPE svg PUBLIC "-//W3C//DTD SVG 20010904//EN"
 "http://www.w3.org/TR/2001/REC-SVG-20010904/DTD/svg10.dtd">
<svg version="1.0" xmlns="http://www.w3.org/2000/svg"
 width="100.000000pt" height="100.000000pt" viewBox="0 0 100.000000 100.000000"
 preserveAspectRatio="xMidYMid meet">
<metadata>
Created by potrace 1.14, written by Peter Selinger 2001-2017
</metadata>
<g transform="translate(0.000000,100.000000) scale(0.100000,-0.100000)"
fill="#000000" stroke="none">
<path d="M430 960 c0 -4 7 -11 16 -14 22 -9 26 -8 22 6 -5 13 -38 20 -38 8z"/>
<path d="M494 955 c19 -15 19 -15 -2 -16 -12 -1 -28 -2 -34 -3 -7 -1 -16 -5
-21 -11 -4 -6 -12 -3 -21 8 -14 18 -32 24 -21 7 3 -5 1 -10 -5 -10 -6 0 -8 -5
-4 -12 5 -8 2 -9 -10 -5 -10 4 -20 7 -22 7 -3 0 -2 5 2 12 4 7 3 8 -5 4 -6 -4
-9 -12 -6 -17 9 -13 -9 -11 -23 3 -9 9 -12 9 -12 0 0 -7 5 -12 10 -12 19 0 10
-16 -10 -17 -13 -1 -18 2 -13 10 5 8 2 8 -9 -1 -8 -7 -24 -10 -34 -6 -18 5
-18 5 -1 -6 9 -6 17 -16 17 -23 0 -8 -3 -8 -9 2 -7 10 -13 11 -30 2 -12 -7
-19 -16 -16 -22 4 -5 1 -9 -4 -9 -6 0 -11 -5 -11 -11 0 -5 5 -7 12 -3 7 4 8 3
4 -5 -4 -6 -11 -9 -16 -6 -4 3 -14 -3 -21 -12 -12 -14 -12 -16 0 -8 10 5 12 4
7 -4 -6 -9 -11 -9 -21 -1 -9 7 -16 6 -25 -5 -7 -8 -9 -15 -6 -15 4 0 0 -7 -8
-16 -9 -8 -14 -20 -11 -25 4 -5 2 -9 -2 -9 -12 0 -69 -100 -63 -108 3 -4 8 -6
12 -4 5 1 8 -2 8 -8 0 -5 -4 -10 -9 -10 -5 0 -11 -11 -13 -25 -3 -13 -2 -22 3
-20 15 10 19 -14 4 -28 -11 -12 -12 -17 -2 -20 9 -4 9 -6 0 -6 -19 -1 -16 -28
5 -40 12 -8 13 -10 3 -11 -11 0 -9 -4 5 -15 13 -10 14 -13 3 -10 -10 4 -16 0
-16 -10 0 -9 6 -14 14 -11 8 4 11 1 8 -5 -4 -6 1 -17 11 -25 11 -9 13 -12 5
-8 -10 5 -11 1 -6 -16 10 -30 13 -51 14 -77 1 -13 5 -23 9 -23 5 0 7 14 6 31
-1 17 1 27 4 24 4 -4 8 -23 9 -43 4 -57 5 -62 20 -62 8 0 12 4 9 8 -12 20 26
6 46 -16 13 -14 17 -22 11 -18 -8 4 -13 2 -13 -6 0 -10 -3 -9 -9 2 -6 8 -8 17
-5 21 2 4 0 10 -6 14 -17 10 -11 -28 8 -50 22 -26 45 -36 62 -25 15 9 45 -23
36 -38 -3 -5 1 -9 9 -9 8 0 11 5 8 11 -3 6 6 0 22 -14 16 -14 25 -20 22 -14
-4 7 -1 14 7 17 10 4 12 -1 9 -16 -5 -22 -5 -22 10 -2 14 16 16 17 17 4 0 -12
7 -15 24 -12 13 3 32 0 43 -5 12 -7 25 -7 36 -1 13 8 19 6 23 -5 3 -9 10 -13
15 -10 5 3 6 10 3 16 -5 7 -2 8 7 3 18 -12 49 -14 43 -3 -3 5 7 6 22 2 21 -5
25 -4 19 6 -6 10 -4 12 9 7 14 -6 17 -3 12 10 -5 15 -4 15 9 -1 8 -11 15 -15
15 -9 0 12 38 29 54 25 5 -2 6 5 2 14 -6 15 -4 15 11 3 15 -12 16 -12 11 2 -6
16 16 20 39 6 12 -8 36 16 26 26 -3 4 1 7 10 7 18 0 41 35 32 50 -3 5 8 19 25
31 17 13 30 32 30 44 0 11 5 26 10 31 15 15 41 124 34 136 -4 7 -2 8 4 4 16
-10 16 46 0 62 -8 8 -8 12 -1 12 9 0 9 27 1 98 -1 6 -4 12 -8 12 -7 0 -10 17
-11 54 0 24 -29 67 -40 60 -5 -3 -6 2 -3 10 3 9 1 16 -5 16 -6 0 -11 7 -11 15
0 8 -12 26 -27 40 -15 14 -24 25 -20 25 4 0 2 6 -5 14 -7 8 -16 12 -20 9 -5
-2 -8 0 -8 6 0 6 -7 8 -15 5 -8 -4 -15 -10 -15 -16 0 -5 4 -7 9 -3 5 3 12 1
15 -4 4 -5 -2 -8 -11 -7 -10 2 -19 13 -21 25 -2 12 -8 19 -13 15 -5 -3 -6 -10
-3 -16 4 -6 -2 -6 -15 1 -25 14 -28 23 -5 14 14 -5 15 -3 4 18 -16 30 -25 39
-17 17 3 -9 0 -19 -7 -21 -9 -4 -12 3 -10 19 1 13 -2 27 -7 30 -5 3 -9 2 -8
-3 1 -4 0 -17 -1 -28 -2 -12 -5 -6 -9 14 -3 19 -12 36 -20 39 -10 3 -11 0 -5
-9 5 -8 9 -21 11 -29 1 -11 -2 -10 -12 3 -7 10 -16 14 -19 9 -3 -5 -15 -12
-26 -15 -11 -3 -18 -2 -16 2 2 3 -1 14 -8 23 -12 16 -14 16 -34 -3 -16 -14
-22 -16 -22 -6 0 8 -10 17 -22 20 -22 6 -22 6 -4 -8z m71 -15 c-3 -5 -11 -10
-16 -10 -6 0 -7 5 -4 10 3 6 11 10 16 10 6 0 7 -4 4 -10z m67 -33 c14 -1 24
-5 21 -9 -2 -5 2 -8 10 -8 8 0 41 -18 75 -39 33 -22 63 -37 66 -34 3 4 6 -1 6
-9 0 -9 7 -22 16 -29 9 -8 28 -31 41 -52 13 -21 28 -35 33 -32 5 3 12 0 16 -6
4 -8 3 -9 -4 -5 -16 10 -15 -3 4 -55 9 -24 17 -77 19 -118 7 -177 -87 -331
-247 -406 -29 -14 -59 -25 -65 -25 -7 0 -13 -4 -13 -9 0 -4 -12 -6 -26 -3 -19
3 -25 1 -20 -7 4 -6 2 -11 -3 -11 -6 0 -11 3 -11 8 0 9 -52 8 -67 -1 -6 -4
-26 1 -44 10 -18 9 -48 17 -65 17 -18 1 -30 4 -27 9 2 4 -1 7 -7 7 -7 0 -26
10 -43 23 -32 22 -77 31 -77 14 0 -4 -5 -5 -11 -1 -16 9 17 27 34 19 6 -4 -7
11 -30 34 -23 22 -44 49 -48 61 -3 11 -11 20 -16 20 -6 0 -6 -7 1 -19 5 -11
10 -23 10 -28 -1 -4 -7 3 -14 17 -8 14 -12 28 -10 32 2 4 -7 32 -21 64 -14 32
-28 85 -31 123 -3 36 -7 72 -9 79 -3 6 0 12 6 12 7 0 9 12 7 30 -2 16 -2 31 1
32 3 2 16 25 29 52 17 36 19 46 8 37 -9 -8 -16 -21 -16 -30 0 -13 -2 -14 -9
-2 -7 11 -2 21 18 35 15 12 47 44 71 71 25 28 49 52 53 53 4 2 2 11 -5 20 -11
14 -11 14 6 5 15 -8 27 -6 55 10 20 12 40 27 44 34 5 8 16 12 25 9 9 -3 31 -2
47 3 25 8 105 7 217 -2z m-337 -27 c3 -5 1 -10 -4 -10 -6 0 -11 5 -11 10 0 6
2 10 4 10 3 0 8 -4 11 -10z m-140 -130 c-10 -11 -22 -20 -28 -20 -5 0 1 9 14
20 31 25 37 25 14 0z m-61 -115 c-7 -16 -24 -21 -24 -6 0 8 7 13 27 20 1 1 0
-6 -3 -14z m833 -307 c-3 -8 -6 -5 -6 6 -1 11 2 17 5 13 3 -3 4 -12 1 -19z
m-92 -158 c3 -6 -1 -7 -9 -4 -18 7 -21 14 -7 14 6 0 13 -4 16 -10z m-45 -25
c-10 -12 -9 -15 4 -15 10 0 14 -5 11 -10 -10 -16 -35 8 -28 26 3 8 10 14 15
14 6 0 5 -6 -2 -15z"/>
<path d="M437 563 c-26 -4 -28 -8 -25 -41 3 -33 6 -37 35 -40 41 -4 62 27 42
64 -7 13 -15 23 -18 23 -3 -1 -19 -4 -34 -6z m33 -30 c0 -7 -6 -13 -12 -13 -9
0 -8 -4 2 -10 12 -8 11 -10 -6 -10 -17 0 -20 5 -17 23 5 25 33 33 33 10z"/>
<path d="M289 548 c-6 -20 -3 -48 5 -49 6 0 24 -2 39 -4 22 -3 27 0 23 11 -3
9 -6 22 -6 30 0 8 -4 14 -10 14 -5 0 -10 -9 -10 -20 0 -11 -5 -20 -11 -20 -5
0 -7 5 -4 10 3 6 0 10 -7 10 -9 0 -9 3 2 10 13 8 12 10 -2 10 -10 0 -18 -1
-19 -2z"/>
<path d="M540 521 c0 -27 10 -32 40 -21 3 1 10 1 15 0 26 -7 105 -4 105 3 0 5
9 5 20 2 16 -5 20 -2 20 14 0 15 -5 19 -16 14 -9 -3 -20 0 -25 8 -6 10 -9 7
-9 -11 -1 -25 -1 -25 -16 -5 -14 19 -16 19 -28 3 -14 -19 -32 -25 -21 -8 3 6
0 10 -7 10 -9 0 -9 3 2 10 12 8 11 10 -7 10 -13 0 -23 -5 -23 -12 0 -9 -3 -9
-12 0 -21 21 -38 13 -38 -17z m30 -1 c0 -5 -4 -10 -10 -10 -5 0 -10 5 -10 10
0 6 5 10 10 10 6 0 10 -4 10 -10z"/>
<path d="M335 440 c-3 -5 -1 -10 4 -10 6 0 11 5 11 10 0 6 -2 10 -4 10 -3 0
-8 -4 -11 -10z"/>
<path d="M400 434 c0 -8 5 -12 10 -9 6 3 10 10 10 16 0 5 -4 9 -10 9 -5 0 -10
-7 -10 -16z"/>
<path d="M440 434 c0 -8 5 -12 10 -9 6 3 10 10 10 16 0 5 -4 9 -10 9 -5 0 -10
-7 -10 -16z"/>
<path d="M507 444 c-8 -8 1 -24 14 -24 5 0 9 7 9 15 0 15 -12 20 -23 9z"/>
<path d="M550 440 c0 -6 7 -10 15 -10 8 0 15 2 15 4 0 2 -7 6 -15 10 -8 3 -15
1 -15 -4z"/>
<path d="M630 434 c0 -8 5 -12 10 -9 6 3 10 10 10 16 0 5 -4 9 -10 9 -5 0 -10
-7 -10 -16z"/>
<path d="M670 440 c0 -5 5 -10 10 -10 6 0 10 5 10 10 0 6 -4 10 -10 10 -5 0
-10 -4 -10 -10z"/>
<path d="M596 961 c-3 -5 1 -11 9 -14 9 -4 12 -1 8 9 -6 16 -10 17 -17 5z"/>
<path d="M253 96 c0 -8 6 -12 14 -9 7 3 10 9 7 14 -8 14 -21 11 -21 -5z"/>
</g>
</svg>
